<svg id="visual" viewBox="0 0 900 600" width="900" height="600" xmlns="http://www.w3.org/2000/svg" xmlns:xlink="http://www.w3.org/1999/xlink" version="1.1"><path d="M336 0L305.2 20C274.3 40 212.7 80 204.3 120C196 160 241 200 256.7 240C272.3 280 258.7 320 239 360C219.3 400 193.7 440 204.8 480C216 520 264 560 288 580L312 600L0 600L0 580C0 560 0 520 0 480C0 440 0 400 0 360C0 320 0 280 0 240C0 200 0 160 0 120C0 80 0 40 0 20L0 0Z" fill="#DC8D9C" stroke-linecap="round" stroke-linejoin="miter"></path></svg>