<svg id="visual" viewBox="0 0 900 600" width="900" height="600" xmlns="http://www.w3.org/2000/svg" xmlns:xlink="http://www.w3.org/1999/xlink" version="1.1"><path d="M0 443L30 452.7C60 462.3 120 481.7 180 479.3C240 477 300 453 360 432.5C420 412 480 395 540 396.3C600 397.7 660 417.3 720 439.8C780 462.3 840 487.7 870 500.3L900 513L900 601L870 601C840 601 780 601 720 601C660 601 600 601 540 601C480 601 420 601 360 601C300 601 240 601 180 601C120 601 60 601 30 601L0 601Z" fill="#000" stroke-linecap="round" stroke-linejoin="miter"></path></svg>