<svg id="visual" viewBox="0 0 900 600" width="900" height="600" xmlns="http://www.w3.org/2000/svg" xmlns:xlink="http://www.w3.org/1999/xlink" version="1.1"><path d="M0 371L30 336.8C60 302.7 120 234.3 180 225.2C240 216 300 266 360 283.3C420 300.7 480 285.3 540 263.5C600 241.7 660 213.3 720 225.7C780 238 840 291 870 317.5L900 344L900 0L870 0C840 0 780 0 720 0C660 0 600 0 540 0C480 0 420 0 360 0C300 0 240 0 180 0C120 0 60 0 30 0L0 0Z" fill="#2ee6b8" stroke-linecap="round" stroke-linejoin="miter"></path></svg>