<svg id="visual" viewBox="0 0 900 600" width="900" height="600" xmlns="http://www.w3.org/2000/svg" xmlns:xlink="http://www.w3.org/1999/xlink" version="1.1"><path d="M559 0L507.7 20C456.3 40 353.7 80 339.8 120C326 160 401 200 427.2 240C453.3 280 430.7 320 398 360C365.3 400 322.7 440 341.2 480C359.7 520 439.3 560 479.2 580L519 600L0 600L0 580C0 560 0 520 0 480C0 440 0 400 0 360C0 320 0 280 0 240C0 200 0 160 0 120C0 80 0 40 0 20L0 0Z" fill="#DC8D9C" stroke-linecap="round" stroke-linejoin="miter"></path></svg>